<?xml version="1.0" encoding="utf-8"?>
<!-- Generator: Adobe Illustrator 16.0.0, SVG Export Plug-In . SVG Version: 6.00 Build 0)  -->
<!DOCTYPE svg PUBLIC "-//W3C//DTD SVG 1.1//EN" "http://www.w3.org/Graphics/SVG/1.1/DTD/svg11.dtd">
<svg version="1.1" id="Capa_1" xmlns="http://www.w3.org/2000/svg" xmlns:xlink="http://www.w3.org/1999/xlink" x="0px" y="0px"
	 width="500px" height="400px" viewBox="0 0 500 400" enable-background="new 0 0 500 400" xml:space="preserve">
<g>
	<circle fill="#FFFFFF" cx="83.198" cy="130.18" r="63.271"/>
	<circle fill="#F1F1F1" cx="83.199" cy="130.181" r="58.081"/>
	<g>
		<g>
			<path fill="#FFFFFF" d="M145.221,107.167c0.586,1.62,0.564,3.464-0.219,5.151c-0.781,1.677-2.172,2.889-3.791,3.48l-18.947,6.95
				l-4.631-12.637l18.951-6.947c1.613-0.591,3.461-0.566,5.146,0.216C143.416,104.159,144.623,105.547,145.221,107.167z"/>
			<path fill="#D3D3D3" d="M117.633,110.111l4.631,12.637l7.061-2.588c-0.918-4.338-2.455-8.59-4.633-12.636L117.633,110.111z"/>
			<path fill="#FFFFFF" d="M116.98,105.726c13.453,18.93,9.008,45.183-9.924,58.632c-18.936,13.456-45.182,9.012-58.631-9.918
				c-13.453-18.936-9.019-45.183,9.92-58.64C77.274,82.349,103.527,86.792,116.98,105.726z"/>
			<path fill="#846451" d="M111.5,109.623c11.295,15.899,7.562,37.957-8.338,49.255c-15.904,11.301-37.958,7.568-49.256-8.333
				c-11.301-15.905-7.571-37.957,8.335-49.261C78.141,89.987,100.197,93.717,111.5,109.623z"/>
			<path fill="#705141" d="M67.976,152.92c-11.296-15.902-7.564-37.95,8.339-49.249c5.847-4.154,12.523-6.273,19.193-6.505
				c-10.701-4.152-23.214-3.025-33.267,4.117c-15.906,11.304-19.636,33.355-8.335,49.261c7.144,10.054,18.587,15.239,30.061,14.835
				C77.741,162.969,72.135,158.773,67.976,152.92z"/>
		</g>
	</g>
</g>
<g>
	<g>
		
			<rect x="262.582" y="149.989" transform="matrix(0.7596 0.6504 -0.6504 0.7596 277.6389 -162.7689)" fill="#F6F6F6" width="192.874" height="288.451"/>
		<g>
			
				<line fill="none" stroke="#D3D3D3" stroke-width="0.75" stroke-miterlimit="10" x1="346.36" y1="179.747" x2="474.07" y2="289.083"/>
			
				<line fill="none" stroke="#D3D3D3" stroke-width="0.75" stroke-miterlimit="10" x1="367.78" y1="154.726" x2="407.035" y2="188.332"/>
			
				<line fill="none" stroke="#D3D3D3" stroke-width="0.75" stroke-miterlimit="10" x1="336.041" y1="191.797" x2="463.753" y2="301.136"/>
			
				<line fill="none" stroke="#D3D3D3" stroke-width="0.75" stroke-miterlimit="10" x1="325.724" y1="203.851" x2="453.435" y2="313.186"/>
			
				<line fill="none" stroke="#D3D3D3" stroke-width="0.75" stroke-miterlimit="10" x1="315.406" y1="215.903" x2="443.117" y2="325.236"/>
			
				<line fill="none" stroke="#D3D3D3" stroke-width="0.75" stroke-miterlimit="10" x1="305.09" y1="227.954" x2="432.8" y2="337.289"/>
			
				<line fill="none" stroke="#D3D3D3" stroke-width="0.75" stroke-miterlimit="10" x1="294.771" y1="240.006" x2="422.481" y2="349.343"/>
			
				<line fill="none" stroke="#D3D3D3" stroke-width="0.75" stroke-miterlimit="10" x1="284.452" y1="252.058" x2="412.163" y2="361.393"/>
			
				<line fill="none" stroke="#D3D3D3" stroke-width="0.75" stroke-miterlimit="10" x1="274.136" y1="264.107" x2="401.847" y2="373.443"/>
			
				<line fill="none" stroke="#D3D3D3" stroke-width="0.75" stroke-miterlimit="10" x1="263.819" y1="276.159" x2="391.529" y2="385.496"/>
			
				<line fill="none" stroke="#D3D3D3" stroke-width="0.75" stroke-miterlimit="10" x1="253.5" y1="288.211" x2="381.211" y2="397.547"/>
			
				<line fill="none" stroke="#D3D3D3" stroke-width="0.75" stroke-miterlimit="10" x1="243.181" y1="300.265" x2="370.893" y2="409.6"/>
			
				<line fill="none" stroke="#D3D3D3" stroke-width="0.75" stroke-miterlimit="10" x1="232.865" y1="312.314" x2="360.577" y2="421.65"/>
			
				<line fill="none" stroke="#D3D3D3" stroke-width="0.75" stroke-miterlimit="10" x1="222.549" y1="324.367" x2="350.257" y2="433.703"/>
		</g>
	</g>
	<g>
		<g opacity="0.2">
			<polygon fill="#8C8C8C" points="305.505,474.821 144.689,368.341 303.914,127.846 464.732,234.323 			"/>
			
				<line fill="none" stroke="#8C8C8C" stroke-width="0.75" stroke-miterlimit="10" x1="278.07" y1="189.298" x2="418.251" y2="282.109"/>
			
				<line fill="none" stroke="#8C8C8C" stroke-width="0.75" stroke-miterlimit="10" x1="296.255" y1="161.833" x2="339.343" y2="190.361"/>
			
				<line fill="none" stroke="#8C8C8C" stroke-width="0.75" stroke-miterlimit="10" x1="269.312" y1="202.524" x2="409.493" y2="295.336"/>
			
				<line fill="none" stroke="#8C8C8C" stroke-width="0.75" stroke-miterlimit="10" x1="260.556" y1="215.754" x2="400.734" y2="308.565"/>
			
				<line fill="none" stroke="#8C8C8C" stroke-width="0.75" stroke-miterlimit="10" x1="251.796" y1="228.982" x2="391.976" y2="321.795"/>
			
				<line fill="none" stroke="#8C8C8C" stroke-width="0.75" stroke-miterlimit="10" x1="243.038" y1="242.21" x2="383.217" y2="335.021"/>
			
				<line fill="none" stroke="#8C8C8C" stroke-width="0.75" stroke-miterlimit="10" x1="234.279" y1="255.438" x2="374.457" y2="348.251"/>
			
				<line fill="none" stroke="#8C8C8C" stroke-width="0.75" stroke-miterlimit="10" x1="225.519" y1="268.668" x2="365.699" y2="361.478"/>
			
				<line fill="none" stroke="#8C8C8C" stroke-width="0.75" stroke-miterlimit="10" x1="216.762" y1="281.896" x2="356.942" y2="374.707"/>
			
				<line fill="none" stroke="#8C8C8C" stroke-width="0.75" stroke-miterlimit="10" x1="208.003" y1="295.126" x2="348.185" y2="387.934"/>
			
				<line fill="none" stroke="#8C8C8C" stroke-width="0.75" stroke-miterlimit="10" x1="199.26" y1="308.337" x2="339.426" y2="401.164"/>
			
				<line fill="none" stroke="#8C8C8C" stroke-width="0.75" stroke-miterlimit="10" x1="190.502" y1="321.566" x2="330.667" y2="414.391"/>
			
				<line fill="none" stroke="#8C8C8C" stroke-width="0.75" stroke-miterlimit="10" x1="181.745" y1="334.793" x2="321.925" y2="427.604"/>
			
				<line fill="none" stroke="#8C8C8C" stroke-width="0.75" stroke-miterlimit="10" x1="172.983" y1="348.022" x2="313.165" y2="440.834"/>
		</g>
		<g>
			<g>
				<polygon fill="#F6F6F6" points="304.505,475.821 143.689,369.341 302.914,128.846 463.732,235.323 				"/>
				<g>
					
						<line fill="none" stroke="#D3D3D3" stroke-width="0.75" stroke-miterlimit="10" x1="277.07" y1="190.298" x2="417.251" y2="283.109"/>
					
						<line fill="none" stroke="#D3D3D3" stroke-width="0.75" stroke-miterlimit="10" x1="295.255" y1="162.833" x2="338.343" y2="191.361"/>
					
						<line fill="none" stroke="#D3D3D3" stroke-width="0.75" stroke-miterlimit="10" x1="268.312" y1="203.524" x2="408.493" y2="296.336"/>
					
						<line fill="none" stroke="#D3D3D3" stroke-width="0.75" stroke-miterlimit="10" x1="259.556" y1="216.754" x2="399.734" y2="309.565"/>
					
						<line fill="none" stroke="#D3D3D3" stroke-width="0.75" stroke-miterlimit="10" x1="250.796" y1="229.982" x2="390.976" y2="322.795"/>
					
						<line fill="none" stroke="#D3D3D3" stroke-width="0.75" stroke-miterlimit="10" x1="242.038" y1="243.21" x2="382.217" y2="336.021"/>
					
						<line fill="none" stroke="#D3D3D3" stroke-width="0.75" stroke-miterlimit="10" x1="233.279" y1="256.438" x2="373.457" y2="349.251"/>
					
						<line fill="none" stroke="#D3D3D3" stroke-width="0.75" stroke-miterlimit="10" x1="224.519" y1="269.668" x2="364.699" y2="362.478"/>
					
						<line fill="none" stroke="#D3D3D3" stroke-width="0.75" stroke-miterlimit="10" x1="215.762" y1="282.896" x2="355.942" y2="375.707"/>
					
						<line fill="none" stroke="#D3D3D3" stroke-width="0.75" stroke-miterlimit="10" x1="207.003" y1="296.126" x2="347.185" y2="388.934"/>
					
						<line fill="none" stroke="#D3D3D3" stroke-width="0.75" stroke-miterlimit="10" x1="198.26" y1="309.337" x2="338.426" y2="402.164"/>
					
						<line fill="none" stroke="#D3D3D3" stroke-width="0.75" stroke-miterlimit="10" x1="189.502" y1="322.566" x2="329.667" y2="415.391"/>
					
						<line fill="none" stroke="#D3D3D3" stroke-width="0.75" stroke-miterlimit="10" x1="180.745" y1="335.793" x2="320.925" y2="428.604"/>
					
						<line fill="none" stroke="#D3D3D3" stroke-width="0.75" stroke-miterlimit="10" x1="171.983" y1="349.022" x2="312.165" y2="441.834"/>
				</g>
			</g>
		</g>
	</g>
</g>
</svg>
