<?xml version="1.0" encoding="utf-8"?>
<!-- Generator: Adobe Illustrator 16.0.0, SVG Export Plug-In . SVG Version: 6.00 Build 0)  -->
<!DOCTYPE svg PUBLIC "-//W3C//DTD SVG 1.1//EN" "http://www.w3.org/Graphics/SVG/1.1/DTD/svg11.dtd">
<svg version="1.1" id="Capa_1" xmlns="http://www.w3.org/2000/svg" xmlns:xlink="http://www.w3.org/1999/xlink" x="0px" y="0px"
	 width="1920px" height="400px" viewBox="0 0 1920 400" enable-background="new 0 0 1920 400" xml:space="preserve">
<g>
	<g>
		
			<image overflow="visible" opacity="0.3" width="1137" height="925" xlink:href="BF033D94F62E10E8.png"  transform="matrix(0.141 0.5639 -0.5639 0.141 240.001 -363.5762)">
		</image>
		<g>
			<g>
				<path fill="#1A171B" d="M-114.521,114.128L-243.91-133.498c-2.838-5.432-0.735-12.137,4.697-14.976L100.159-325.8
					c5.432-2.839,12.138-0.736,14.977,4.698L244.524-73.479L-114.521,114.128z"/>
				
					<rect x="-119.767" y="-296.922" transform="matrix(0.4631 0.8863 -0.8863 0.4631 -92.6321 -55.9008)" fill="#CCCCCC" width="239.183" height="385.025"/>
				
					<rect x="-116.998" y="-291.622" transform="matrix(-0.4631 -0.8863 0.8863 -0.4631 91.6367 -142.709)" fill="#FFFFFF" width="239.185" height="385.024"/>
				<g>
					<path fill="#1A171B" d="M196.925-78.116c-2.953,1.541-6.602,0.401-8.146-2.557c-1.543-2.954-0.399-6.602,2.557-8.146
						c2.955-1.542,6.6-0.401,8.144,2.556C201.025-83.307,199.88-79.662,196.925-78.116z"/>
					<path fill="#1A171B" d="M167.747-62.87c-2.954,1.543-6.603,0.399-8.146-2.556c-1.546-2.955-0.399-6.601,2.553-8.142
						c2.958-1.548,6.604-0.403,8.149,2.55C171.844-68.06,170.701-64.416,167.747-62.87z"/>
					<path fill="#1A171B" d="M138.569-47.623c-2.955,1.541-6.602,0.401-8.148-2.557c-1.542-2.955-0.398-6.597,2.555-8.145
						c2.959-1.543,6.604-0.402,8.145,2.555C142.667-52.814,141.521-49.168,138.569-47.623z"/>
					<path fill="#1A171B" d="M109.389-32.377c-2.952,1.541-6.601,0.402-8.145-2.556c-1.546-2.955-0.399-6.601,2.555-8.143
						c2.956-1.547,6.602-0.402,8.145,2.553C113.49-37.567,112.343-33.924,109.389-32.377z"/>
					<circle fill="#1A171B" cx="77.414" cy="-22.481" r="6.037"/>
					<path fill="#1A171B" d="M51.029-1.884c-2.955,1.542-6.6,0.401-8.146-2.556c-1.541-2.957-0.396-6.602,2.558-8.144
						c2.954-1.544,6.602-0.401,8.145,2.554C55.132-7.075,53.985-3.431,51.029-1.884z"/>
					<path fill="#1A171B" d="M21.851,13.359c-2.954,1.547-6.6,0.402-8.144-2.55c-1.545-2.958-0.397-6.602,2.556-8.149
						c2.953-1.542,6.6-0.401,8.145,2.556C25.954,8.171,24.808,11.818,21.851,13.359z"/>
					<path fill="#1A171B" d="M-7.328,28.609c-2.953,1.542-6.599,0.401-8.144-2.556c-1.543-2.956-0.399-6.601,2.556-8.143
						c2.954-1.544,6.6-0.401,8.147,2.553C-3.226,23.417-4.37,27.063-7.328,28.609z"/>
					<path fill="#1A171B" d="M-36.506,43.852c-2.954,1.548-6.599,0.405-8.143-2.55c-1.543-2.958-0.399-6.602,2.555-8.145
						c2.954-1.545,6.599-0.401,8.145,2.551C-32.406,38.664-33.547,42.31-36.506,43.852z"/>
					<path fill="#1A171B" d="M-65.684,59.101c-2.955,1.541-6.602,0.402-8.146-2.556c-1.545-2.956-0.4-6.601,2.553-8.143
						c2.959-1.546,6.603-0.405,8.149,2.552C-61.583,53.91-62.73,57.556-65.684,59.101z"/>
					<path fill="#1A171B" d="M-94.864,74.349c-2.951,1.544-6.599,0.401-8.142-2.556c-1.547-2.956-0.402-6.599,2.55-8.142
						c2.958-1.547,6.604-0.403,8.146,2.547C-90.761,69.156-91.908,72.803-94.864,74.349z"/>
				</g>
				<path fill="#1A171B" d="M-118.947,105.664L10.443,353.285c2.837,5.436,9.542,7.539,14.976,4.697L364.79,180.656
					c5.434-2.838,7.536-9.543,4.698-14.976L240.097-81.944L-118.947,105.664z"/>
				
					<rect x="7.456" y="-53.439" transform="matrix(0.4631 0.8863 -0.8863 0.4631 191.4728 -37.9358)" fill="#AFAEAF" width="239.186" height="385.026"/>
				
					<rect x="5.423" y="-57.33" transform="matrix(0.4631 0.8863 -0.8863 0.4631 186.9293 -38.2233)" fill="#CCCCCC" width="239.182" height="385.025"/>
				<polygon fill="#FFFFFF" points="348.991,148.13 238.224,-63.856 -103.027,114.448 7.743,326.441 				"/>
				<g>
					<path fill="#1A171B" d="M216.726-40.223c-2.954,1.544-4.098,5.188-2.556,8.146c1.544,2.955,5.191,4.098,8.146,2.553
						c2.954-1.542,4.1-5.19,2.556-8.144C223.328-40.625,219.682-41.766,216.726-40.223z"/>
					<circle fill="#1A171B" cx="190.341" cy="-19.627" r="6.037"/>
					<path fill="#1A171B" d="M158.367-9.729c-2.953,1.543-4.098,5.189-2.553,8.145c1.542,2.955,5.191,4.099,8.143,2.553
						c2.957-1.541,4.101-5.188,2.558-8.143C164.969-10.132,161.324-11.275,158.367-9.729z"/>
					<path fill="#1A171B" d="M129.188,5.52c-2.952,1.541-4.099,5.186-2.553,8.141c1.543,2.955,5.191,4.1,8.145,2.555
						c2.957-1.546,4.101-5.189,2.555-8.146C135.791,5.116,132.146,3.971,129.188,5.52z"/>
					<path fill="#1A171B" d="M100.009,20.762c-2.954,1.546-4.098,5.191-2.552,8.146c1.543,2.954,5.188,4.098,8.145,2.552
						c2.955-1.541,4.101-5.187,2.552-8.142C106.613,20.36,102.963,19.217,100.009,20.762z"/>
					<path fill="#1A171B" d="M70.83,36.013c-2.952,1.542-4.099,5.184-2.55,8.142c1.542,2.959,5.188,4.098,8.144,2.557
						c2.955-1.548,4.099-5.193,2.553-8.15C77.433,35.607,73.786,34.464,70.83,36.013z"/>
					<circle fill="#1A171B" cx="44.448" cy="56.604" r="6.037"/>
					<path fill="#1A171B" d="M12.474,66.5c-2.957,1.546-4.098,5.189-2.555,8.148c1.546,2.957,5.191,4.095,8.145,2.555
						c2.954-1.545,4.099-5.191,2.555-8.146C19.077,66.098,15.431,64.959,12.474,66.5z"/>
					<path fill="#1A171B" d="M-16.705,81.748c-2.956,1.543-4.1,5.191-2.556,8.146c1.545,2.956,5.192,4.097,8.145,2.554
						c2.957-1.545,4.1-5.188,2.557-8.148C-10.104,81.346-13.75,80.205-16.705,81.748z"/>
					<path fill="#1A171B" d="M-45.886,96.995c-2.953,1.543-4.096,5.188-2.552,8.145c1.546,2.956,5.191,4.098,8.143,2.555
						c2.959-1.545,4.101-5.189,2.56-8.145C-39.281,96.593-42.927,95.451-45.886,96.995z"/>
					<circle fill="#1A171B" cx="-72.268" cy="117.59" r="6.035"/>
				</g>
				<g>
					<path fill="#C6C7C8" d="M220.046-34.07c-1.341,0.703-3.143-0.088-4.018-1.765l-23.632-45.233
						c-0.875-1.676-0.501-3.606,0.844-4.308l0,0c1.341-0.702,3.141,0.089,4.017,1.771l23.635,45.225
						C221.767-36.7,221.39-34.772,220.046-34.07L220.046-34.07z"/>
					<path fill="#C6C7C8" d="M190.544-18.654c-1.346,0.703-3.145-0.09-4.021-1.769l-23.63-45.227
						c-0.88-1.679-0.502-3.609,0.842-4.308l0,0c1.343-0.702,3.143,0.088,4.021,1.768l23.632,45.226
						C192.264-21.283,191.885-19.354,190.544-18.654L190.544-18.654z"/>
					<path fill="#C6C7C8" d="M161.364-3.407c-1.344,0.702-3.143-0.088-4.019-1.769l-23.633-45.226
						c-0.878-1.681-0.5-3.609,0.841-4.312l0,0c1.345-0.704,3.143,0.091,4.023,1.769L162.21-7.716
						C163.086-6.039,162.708-4.108,161.364-3.407L161.364-3.407z"/>
					<path fill="#C6C7C8" d="M132.186,11.839c-1.343,0.702-3.143-0.091-4.021-1.767l-23.633-45.229
						c-0.877-1.677-0.498-3.61,0.844-4.309l0,0c1.343-0.702,3.143,0.088,4.021,1.768l23.63,45.225
						C133.908,9.21,133.527,11.139,132.186,11.839L132.186,11.839z"/>
					<path fill="#C6C7C8" d="M103.168,27.001c-1.342,0.699-3.142-0.086-4.019-1.77L75.517-19.996
						c-0.878-1.678-0.497-3.607,0.843-4.31l0,0c1.346-0.703,3.144,0.09,4.022,1.77l23.631,45.23
						C104.89,24.37,104.514,26.3,103.168,27.001L103.168,27.001z"/>
					<path fill="#C6C7C8" d="M73.831,42.332c-1.348,0.703-3.143-0.091-4.021-1.769L46.177-4.665c-0.875-1.68-0.5-3.606,0.843-4.312
						l0,0c1.344-0.699,3.146,0.09,4.022,1.771l23.63,45.227C75.552,39.698,75.17,41.632,73.831,42.332L73.831,42.332z"/>
					<path fill="#C6C7C8" d="M44.975,57.411c-1.343,0.697-3.144-0.091-4.02-1.771L17.323,10.414
						c-0.878-1.68-0.498-3.611,0.841-4.312l0,0c1.348-0.702,3.141,0.092,4.02,1.767L45.816,53.1
						C46.693,54.777,46.32,56.704,44.975,57.411L44.975,57.411z"/>
					<path fill="#C6C7C8" d="M15.471,72.827c-1.343,0.702-3.14-0.092-4.019-1.77l-23.633-45.229
						c-0.876-1.68-0.499-3.607,0.846-4.312l0,0c1.339-0.698,3.14,0.092,4.017,1.771l23.632,45.228
						C17.193,70.193,16.814,72.123,15.471,72.827L15.471,72.827z"/>
					<path fill="#C6C7C8" d="M-13.868,88.155c-1.344,0.702-3.141-0.09-4.018-1.767l-23.634-45.23
						c-0.879-1.678-0.501-3.608,0.845-4.308l0,0c1.341-0.702,3.141,0.089,4.018,1.767l23.633,45.227
						C-12.149,85.524-12.525,87.454-13.868,88.155L-13.868,88.155z"/>
					<path fill="#C6C7C8" d="M-42.886,103.318c-1.342,0.702-3.143-0.089-4.018-1.767l-23.631-45.229
						c-0.88-1.681-0.498-3.609,0.841-4.311l0,0c1.343-0.704,3.143,0.088,4.019,1.769l23.636,45.228
						C-41.165,100.686-41.541,102.613-42.886,103.318L-42.886,103.318z"/>
					<path fill="#C6C7C8" d="M-71.903,118.478c-1.344,0.703-3.143-0.089-4.019-1.77l-23.63-45.225
						c-0.881-1.682-0.505-3.609,0.841-4.311l0,0c1.341-0.701,3.144,0.089,4.021,1.771l23.632,45.223
						C-70.181,115.849-70.559,117.777-71.903,118.478L-71.903,118.478z"/>
				</g>
			</g>
		</g>
	</g>
</g>
<g>
	<g>
		<g>
			<g>
				<path fill="#D7D8DC" d="M2183.627-47.38l-488.548-289.903c-8.235-4.883-20.472,8.832-20.472,8.832
					c-3.178,3.358-4.952,6.971-5.317,11.378l-11.868,144.011c-0.401,4.891,2.137,9.676,6.513,12.273l379.699,225.31
					c4.376,2.599,9.794,2.534,13.892-0.162l120.718-79.422c3.692-2.43,5.882-5.506,7.04-9.431
					C2185.283-24.494,2191.856-42.496,2183.627-47.38z"/>
				<path fill="#C2C3C8" d="M2043.634,64.521l-379.699-225.31c-4.376-2.597-6.914-7.382-6.513-12.273l11.868-144.011
					c0.76-9.2,11.059-14.143,19.29-9.259L2177.126-36.43c8.233,4.886,8.828,16.294,1.117,21.367l-120.718,79.422
					C2053.428,67.055,2048.01,67.12,2043.634,64.521z"/>
				<polygon fill="#D0E5F0" points="1674.559,-174.229 1685.609,-308.349 2162.766,-25.206 2050.341,48.759 				"/>
				<path opacity="0.24" fill="#C1DDEB" d="M2137.553-8.617l25.213-16.588l-477.156-283.144l-7.383,89.589
					C1895.848-171.789,2127.381-15.216,2137.553-8.617z"/>
			</g>
			<path fill="#D7D8DC" d="M1881.896,337.52l-380.078-225.537c-5.431-3.224-7.22-10.235-3.998-15.667l150.262-253.22
				c3.222-5.43,10.233-7.219,15.666-3.997l380.077,225.538c5.428,3.221,7.221,10.234,3.996,15.664l-150.256,253.221
				C1894.34,338.953,1887.325,340.739,1881.896,337.52z"/>
		</g>
		<g>
			<path fill="#FFFFFF" d="M1927.366,235.756L1569.351,23.309c-2.4-1.424-3.194-4.527-1.769-6.93l82.74-139.435
				c1.422-2.4,4.527-3.19,6.926-1.767l358.019,212.446c2.403,1.426,3.195,4.527,1.768,6.927l-82.739,139.438
				C1932.872,236.387,1929.769,237.18,1927.366,235.756z"/>
			<g>
				<g>
					<path fill="#0D1639" d="M1668.553-90.622l-17.959-10.659c-0.837-0.497-1.111-1.575-0.615-2.413l4.158-7.009
						c0.497-0.837,1.577-1.113,2.414-0.618l17.961,10.659c0.837,0.496,1.112,1.578,0.615,2.415l-4.157,7.009
						C1670.473-90.4,1669.391-90.127,1668.553-90.622z"/>
					<path fill="#0D1639" d="M1693.883-75.593l-17.963-10.659c-0.837-0.496-1.112-1.576-0.615-2.413l4.158-7.009
						c0.496-0.838,1.577-1.113,2.414-0.618l17.963,10.659c0.836,0.497,1.11,1.577,0.615,2.413l-4.16,7.011
						C1695.798-75.372,1694.717-75.096,1693.883-75.593z"/>
					<path fill="#0D1639" d="M1719.205-60.565l-17.959-10.659c-0.837-0.495-1.112-1.575-0.615-2.412l4.158-7.009
						c0.498-0.838,1.576-1.113,2.413-0.617l17.96,10.658c0.837,0.497,1.114,1.579,0.619,2.416l-4.16,7.009
						C1721.124-60.344,1720.041-60.071,1719.205-60.565z"/>
					<path fill="#0D1639" d="M1744.534-45.536l-17.963-10.66c-0.837-0.496-1.112-1.576-0.616-2.413l4.158-7.008
						c0.501-0.838,1.579-1.115,2.416-0.618l17.963,10.659c0.834,0.496,1.11,1.577,0.615,2.413l-4.162,7.011
						C1746.449-45.315,1745.371-45.04,1744.534-45.536z"/>
					<path fill="#0D1639" d="M1769.859-30.509l-17.962-10.658c-0.835-0.497-1.109-1.577-0.614-2.412l4.156-7.009
						c0.5-0.838,1.578-1.113,2.415-0.618l17.962,10.658c0.835,0.497,1.111,1.578,0.616,2.415l-4.161,7.01
						C1771.775-30.287,1770.693-30.013,1769.859-30.509z"/>
					<path fill="#0D1639" d="M1795.186-15.479l-17.963-10.659c-0.834-0.496-1.109-1.577-0.615-2.412l4.16-7.01
						c0.498-0.838,1.578-1.113,2.413-0.617l17.962,10.659c0.838,0.497,1.113,1.576,0.616,2.414l-4.161,7.01
						C1797.102-15.259,1796.023-14.984,1795.186-15.479z"/>
					<path fill="#0D1639" d="M1820.512-0.453l-17.962-10.658c-0.835-0.495-1.11-1.576-0.616-2.412l4.161-7.01
						c0.495-0.837,1.577-1.113,2.412-0.617l17.961,10.658c0.836,0.498,1.113,1.577,0.617,2.414l-4.158,7.01
						C1822.428-0.229,1821.346,0.044,1820.512-0.453z"/>
					<path fill="#0D1639" d="M1845.837,14.578l-17.963-10.66c-0.834-0.496-1.11-1.576-0.615-2.413l4.162-7.01
						c0.497-0.837,1.577-1.113,2.411-0.616l17.963,10.659c0.838,0.495,1.113,1.575,0.616,2.413l-4.158,7.01
						C1847.756,14.798,1846.674,15.074,1845.837,14.578z"/>
					<path fill="#0D1639" d="M1871.163,29.604L1853.2,18.947c-0.834-0.496-1.11-1.576-0.614-2.412l4.16-7.011
						c0.496-0.838,1.578-1.113,2.412-0.616l17.962,10.657c0.835,0.498,1.112,1.578,0.616,2.415l-4.157,7.011
						C1873.081,29.826,1871.998,30.101,1871.163,29.604z"/>
					<path fill="#0D1639" d="M1896.488,44.632l-17.962-10.656c-0.834-0.498-1.108-1.578-0.615-2.413l4.16-7.012
						c0.497-0.837,1.578-1.113,2.412-0.616l17.963,10.657c0.838,0.499,1.112,1.579,0.617,2.416l-4.158,7.009
						C1898.408,44.854,1897.328,45.129,1896.488,44.632z"/>
					<path fill="#0D1639" d="M1921.818,59.663l-17.966-10.658c-0.835-0.498-1.11-1.578-0.616-2.413l4.161-7.01
						c0.497-0.838,1.578-1.115,2.412-0.618l17.964,10.659c0.837,0.497,1.113,1.577,0.616,2.414l-4.159,7.01
						C1923.732,59.884,1922.654,60.158,1921.818,59.663z"/>
					<path fill="#0D1639" d="M1947.141,74.689l-17.959-10.658c-0.838-0.496-1.113-1.575-0.616-2.413l4.158-7.009
						c0.497-0.837,1.577-1.113,2.412-0.617l17.963,10.659c0.839,0.496,1.111,1.575,0.616,2.415l-4.159,7.008
						C1949.059,74.912,1947.979,75.187,1947.141,74.689z"/>
					<path fill="#0D1639" d="M1972.468,89.719l-17.962-10.659c-0.837-0.497-1.111-1.575-0.614-2.412l4.157-7.012
						c0.497-0.835,1.578-1.111,2.413-0.616l17.963,10.66c0.839,0.496,1.115,1.577,0.616,2.415l-4.16,7.008
						C1974.384,89.94,1973.307,90.216,1972.468,89.719z"/>
					<path fill="#0D1639" d="M1997.791,104.748l-17.957-10.659c-0.838-0.494-1.113-1.576-0.616-2.413l4.161-7.008
						c0.494-0.837,1.573-1.113,2.41-0.618l17.961,10.66c0.839,0.497,1.115,1.577,0.615,2.415l-4.158,7.008
						C1999.711,104.968,1998.633,105.243,1997.791,104.748z"/>
				</g>
				<g>
					<path fill="#0D1639" d="M1654.094-67.428l-16.93-10.046c-1.121-0.665-1.489-2.113-0.825-3.233l8.288-13.965
						c0.665-1.122,2.113-1.492,3.232-0.826l16.93,10.046c1.121,0.666,1.491,2.114,0.826,3.236l-8.288,13.965
						C1656.664-67.131,1655.216-66.762,1654.094-67.428z"/>
					<path fill="#0D1639" d="M1679.422-52.398l-16.933-10.047c-1.12-0.665-1.489-2.113-0.825-3.234l8.288-13.965
						c0.665-1.122,2.112-1.491,3.233-0.826l16.934,10.049c1.119,0.664,1.488,2.111,0.821,3.234l-8.286,13.965
						C1681.991-52.104,1680.542-51.734,1679.422-52.398z"/>
					<path fill="#0D1639" d="M1704.745-37.371l-16.93-10.047c-1.12-0.665-1.489-2.113-0.825-3.233l8.288-13.965
						c0.665-1.122,2.112-1.491,3.233-0.826l16.93,10.048c1.123,0.666,1.492,2.114,0.825,3.234l-8.284,13.967
						C1707.316-37.075,1705.868-36.706,1704.745-37.371z"/>
					<path fill="#0D1639" d="M1730.074-22.341l-16.933-10.049c-1.121-0.665-1.491-2.113-0.825-3.232l8.287-13.966
						c0.666-1.121,2.113-1.49,3.233-0.826l16.933,10.049c1.12,0.665,1.49,2.113,0.827,3.234l-8.29,13.966
						C1732.643-22.045,1731.194-21.677,1730.074-22.341z"/>
					<path fill="#0D1639" d="M1755.396-7.313l-16.929-10.048c-1.12-0.664-1.49-2.112-0.825-3.232l8.288-13.965
						c0.665-1.122,2.112-1.491,3.233-0.826l16.929,10.047c1.123,0.666,1.493,2.114,0.828,3.235l-8.288,13.965
						C1757.969-7.017,1756.521-6.647,1755.396-7.313z"/>
					<path fill="#0D1639" d="M1780.726,7.716l-16.934-10.048c-1.119-0.665-1.489-2.113-0.825-3.233l8.289-13.966
						c0.664-1.121,2.112-1.491,3.233-0.827l16.933,10.048c1.12,0.665,1.49,2.113,0.825,3.235l-8.288,13.965
						C1783.295,8.011,1781.847,8.381,1780.726,7.716z"/>
					<path fill="#0D1639" d="M1806.051,22.743l-16.932-10.046c-1.121-0.666-1.49-2.113-0.824-3.233l8.287-13.966
						c0.664-1.121,2.112-1.491,3.233-0.826l16.93,10.047c1.123,0.667,1.493,2.115,0.827,3.235l-8.287,13.966
						C1808.622,23.039,1807.174,23.408,1806.051,22.743z"/>
					<path fill="#0D1639" d="M1831.38,37.772l-16.936-10.048c-1.12-0.665-1.489-2.113-0.825-3.231l8.29-13.967
						c0.663-1.121,2.111-1.49,3.231-0.827l16.936,10.048c1.118,0.666,1.49,2.113,0.822,3.234l-8.285,13.966
						C1833.949,38.068,1832.5,38.437,1831.38,37.772z"/>
					<path fill="#0D1639" d="M1856.703,52.799l-16.933-10.046c-1.12-0.664-1.489-2.111-0.825-3.232l8.289-13.966
						c0.664-1.121,2.112-1.49,3.232-0.825l16.932,10.045c1.123,0.667,1.493,2.114,0.826,3.235l-8.286,13.966
						C1859.274,53.096,1857.826,53.466,1856.703,52.799z"/>
					<path fill="#0D1639" d="M1882.031,67.829l-16.936-10.047c-1.119-0.665-1.488-2.113-0.825-3.233l8.29-13.967
						c0.663-1.12,2.112-1.49,3.232-0.825l16.936,10.047c1.119,0.665,1.489,2.113,0.822,3.234l-8.286,13.966
						C1884.6,68.125,1883.152,68.494,1882.031,67.829z"/>
					<path fill="#0D1639" d="M1907.354,82.856l-16.931-10.046c-1.121-0.665-1.491-2.113-0.825-3.233l8.287-13.967
						c0.666-1.121,2.113-1.49,3.233-0.825l16.933,10.047c1.123,0.665,1.492,2.113,0.827,3.234l-8.287,13.966
						C1909.925,83.153,1908.477,83.523,1907.354,82.856z"/>
					<path fill="#0D1639" d="M1932.68,97.883l-16.931-10.044c-1.118-0.666-1.488-2.114-0.825-3.234l8.288-13.965
						c0.665-1.122,2.112-1.491,3.231-0.826l16.934,10.047c1.123,0.665,1.492,2.112,0.827,3.233l-8.287,13.966
						C1935.251,98.181,1933.803,98.55,1932.68,97.883z"/>
					<path fill="#0D1639" d="M1958.006,112.915l-16.93-10.049c-1.119-0.664-1.49-2.113-0.827-3.232l8.287-13.968
						c0.665-1.119,2.116-1.489,3.233-0.825l16.932,10.048c1.124,0.665,1.493,2.112,0.83,3.233l-8.289,13.966
						C1960.578,113.209,1959.131,113.579,1958.006,112.915z"/>
					<path fill="#0D1639" d="M1983.334,127.941l-16.932-10.047c-1.12-0.665-1.489-2.113-0.825-3.233l8.286-13.964
						c0.667-1.124,2.115-1.493,3.236-0.828l16.928,10.048c1.124,0.665,1.493,2.112,0.829,3.235l-8.288,13.964
						C1985.903,128.237,1984.455,128.606,1983.334,127.941z"/>
				</g>
				<g>
					<path fill="#0D1639" d="M1676.175-46.922l-41.425-24.581c-1.584-0.94-3.626-0.416-4.564,1.165l-7.299,12.296
						c-0.938,1.582-0.416,3.624,1.168,4.564l41.424,24.581c1.118,0.666,2.566,0.294,3.23-0.824l8.288-13.967
						C1677.662-44.809,1677.292-46.256,1676.175-46.922z"/>
					<path fill="#0D1639" d="M1690.802-13.871l-16.933-10.045c-1.119-0.665-1.489-2.114-0.823-3.233l8.287-13.967
						c0.664-1.12,2.112-1.49,3.231-0.825l16.933,10.045c1.123,0.667,1.491,2.115,0.826,3.236l-8.286,13.966
						C1693.373-13.573,1691.925-13.204,1690.802-13.871z"/>
					<path fill="#0D1639" d="M1716.131,1.159l-16.936-10.047c-1.121-0.665-1.49-2.113-0.824-3.233l8.287-13.967
						c0.664-1.12,2.111-1.489,3.232-0.825l16.936,10.047c1.12,0.665,1.489,2.113,0.822,3.235l-8.285,13.965
						C1718.699,1.455,1717.25,1.825,1716.131,1.159z"/>
					<path fill="#0D1639" d="M1741.453,16.187l-16.932-10.046c-1.121-0.665-1.49-2.113-0.825-3.233l8.288-13.965
						c0.665-1.122,2.113-1.492,3.232-0.827l16.933,10.046c1.123,0.666,1.491,2.114,0.826,3.236l-8.286,13.964
						C1744.023,16.483,1742.576,16.853,1741.453,16.187z"/>
					<path fill="#0D1639" d="M1766.782,31.216l-16.936-10.047c-1.12-0.665-1.489-2.112-0.825-3.233l8.288-13.965
						c0.665-1.122,2.112-1.491,3.232-0.826l16.936,10.046c1.12,0.666,1.489,2.113,0.823,3.235l-8.286,13.965
						C1769.35,31.511,1767.902,31.881,1766.782,31.216z"/>
					<path fill="#0D1639" d="M1792.104,46.243l-16.932-10.046c-1.12-0.665-1.487-2.113-0.825-3.233l8.288-13.965
						c0.665-1.122,2.112-1.491,3.233-0.826l16.932,10.046c1.123,0.666,1.492,2.115,0.828,3.235l-8.288,13.965
						C1794.676,46.54,1793.229,46.909,1792.104,46.243z"/>
					<path fill="#0D1639" d="M1817.435,61.273l-16.936-10.048c-1.119-0.666-1.488-2.113-0.824-3.234l8.286-13.964
						c0.664-1.121,2.115-1.492,3.233-0.827l16.936,10.048c1.12,0.664,1.489,2.113,0.825,3.234l-8.287,13.965
						C1820.002,61.567,1818.555,61.937,1817.435,61.273z"/>
					<path fill="#0D1639" d="M1842.757,76.301l-16.93-10.048c-1.121-0.664-1.491-2.113-0.825-3.232l8.286-13.965
						c0.667-1.123,2.115-1.492,3.235-0.828l16.93,10.048c1.123,0.665,1.492,2.114,0.827,3.235l-8.287,13.966
						C1845.327,76.596,1843.879,76.967,1842.757,76.301z"/>
					<path fill="#0D1639" d="M1868.086,91.331l-16.934-10.048c-1.119-0.665-1.49-2.114-0.825-3.233l8.286-13.965
						c0.667-1.122,2.115-1.492,3.234-0.827l16.934,10.048c1.121,0.665,1.49,2.113,0.826,3.234l-8.289,13.967
						C1870.653,91.624,1869.207,91.996,1868.086,91.331z"/>
					<path fill="#0D1639" d="M1893.41,106.357l-16.932-10.048c-1.121-0.666-1.49-2.113-0.825-3.232l8.286-13.964
						c0.667-1.122,2.114-1.492,3.234-0.827l16.932,10.046c1.121,0.667,1.491,2.115,0.826,3.236l-8.288,13.967
						C1895.979,106.655,1894.531,107.025,1893.41,106.357z"/>
					<path fill="#0D1639" d="M1918.736,121.385l-16.934-10.047c-1.118-0.663-1.488-2.113-0.823-3.231l8.288-13.966
						c0.664-1.121,2.112-1.49,3.232-0.828l16.934,10.047c1.119,0.668,1.489,2.116,0.824,3.236l-8.288,13.966
						C1921.306,121.683,1919.857,122.052,1918.736,121.385z"/>
				</g>
				<g>
					<path fill="#0D1639" d="M1626.203-20.426l-16.933-10.046c-1.12-0.665-1.489-2.112-0.824-3.233l8.287-13.966
						c0.665-1.121,2.112-1.49,3.233-0.826l16.934,10.046c1.122,0.666,1.492,2.114,0.825,3.236l-8.286,13.965
						C1628.775-20.13,1627.327-19.76,1626.203-20.426z"/>
					<path fill="#0D1639" d="M1651.532-5.396l-16.935-10.048c-1.119-0.666-1.491-2.113-0.825-3.233l8.287-13.965
						c0.665-1.122,2.114-1.49,3.233-0.827l16.935,10.048c1.121,0.665,1.491,2.113,0.825,3.233l-8.288,13.965
						C1654.1-5.102,1652.652-4.732,1651.532-5.396z"/>
					<path fill="#0D1639" d="M1676.855,9.631l-16.931-10.048c-1.12-0.665-1.489-2.113-0.825-3.233l8.286-13.965
						c0.665-1.12,2.112-1.489,3.232-0.825l16.933,10.046c1.124,0.666,1.494,2.113,0.829,3.235l-8.288,13.966
						C1679.427,9.927,1677.979,10.297,1676.855,9.631z"/>
					<path fill="#0D1639" d="M1702.184,24.66l-16.933-10.049c-1.12-0.664-1.489-2.111-0.825-3.232l8.286-13.965
						c0.667-1.122,2.114-1.492,3.233-0.826l16.935,10.046c1.12,0.666,1.489,2.113,0.825,3.235l-8.289,13.965
						C1704.752,24.956,1703.304,25.325,1702.184,24.66z"/>
					<path fill="#0D1639" d="M1727.509,39.687l-16.931-10.046c-1.121-0.665-1.49-2.113-0.825-3.233l8.285-13.965
						c0.667-1.122,2.114-1.492,3.234-0.827l16.931,10.046c1.123,0.666,1.492,2.114,0.828,3.235l-8.289,13.965
						C1730.078,39.984,1728.63,40.354,1727.509,39.687z"/>
					<path fill="#0D1639" d="M1752.835,54.716l-16.932-10.047c-1.121-0.665-1.491-2.113-0.825-3.233l8.285-13.965
						c0.666-1.123,2.115-1.491,3.235-0.827l16.933,10.049c1.121,0.666,1.49,2.113,0.824,3.233l-8.287,13.965
						C1755.403,55.012,1753.955,55.381,1752.835,54.716z"/>
					<path fill="#0D1639" d="M1778.161,69.744l-16.932-10.046c-1.121-0.665-1.489-2.113-0.825-3.233l8.288-13.965
						c0.665-1.121,2.112-1.49,3.232-0.825l16.933,10.045c1.121,0.667,1.49,2.116,0.824,3.235l-8.287,13.967
						C1780.729,70.041,1779.282,70.411,1778.161,69.744z"/>
					<path fill="#0D1639" d="M1803.487,84.774l-16.933-10.049c-1.12-0.664-1.49-2.112-0.825-3.232l8.288-13.966
						c0.664-1.121,2.112-1.49,3.233-0.825l16.933,10.048c1.119,0.665,1.489,2.113,0.824,3.233l-8.288,13.967
						C1806.055,85.07,1804.607,85.439,1803.487,84.774z"/>
					<path fill="#0D1639" d="M1828.812,99.8l-16.932-10.045c-1.118-0.666-1.488-2.114-0.823-3.234l8.286-13.966
						c0.664-1.12,2.112-1.49,3.233-0.825l16.932,10.046c1.121,0.667,1.49,2.114,0.825,3.235l-8.287,13.966
						C1831.381,100.098,1829.934,100.468,1828.812,99.8z"/>
					<path fill="#0D1639" d="M1854.14,114.83l-16.931-10.047c-1.121-0.665-1.491-2.113-0.825-3.234l8.284-13.966
						c0.665-1.12,2.115-1.491,3.234-0.825l16.933,10.048c1.12,0.664,1.489,2.112,0.825,3.232l-8.289,13.967
						C1856.707,115.125,1855.258,115.496,1854.14,114.83z"/>
					<path fill="#0D1639" d="M1879.463,129.856l-16.928-10.045c-1.121-0.666-1.49-2.113-0.825-3.234l8.286-13.966
						c0.667-1.121,2.114-1.491,3.234-0.826l16.93,10.046c1.121,0.667,1.49,2.115,0.826,3.238l-8.288,13.964
						C1882.033,130.154,1880.586,130.524,1879.463,129.856z"/>
					<path fill="#0D1639" d="M1904.789,144.884l-16.93-10.045c-1.118-0.665-1.488-2.113-0.824-3.233l8.284-13.966
						c0.668-1.121,2.116-1.49,3.236-0.826l16.932,10.049c1.119,0.664,1.488,2.112,0.825,3.236l-8.289,13.964
						C1907.359,145.182,1905.912,145.552,1904.789,144.884z"/>
					<path fill="#0D1639" d="M1980.084,133.416l-42.258-25.072c-1.12-0.665-2.568-0.295-3.233,0.825l-8.287,13.967
						c-0.666,1.118-0.296,2.568,0.825,3.233l6.982,4.142l-12.742,21.472c-0.665,1.121-0.293,2.567,0.827,3.232l33.245,19.729
						c1.122,0.663,2.568,0.298,3.234-0.826l22.232-37.467C1981.575,135.531,1981.205,134.084,1980.084,133.416z"/>
				</g>
				<g>
					<path fill="#0D1639" d="M1612.26,3.074l-16.933-10.046c-1.12-0.665-1.492-2.109-0.825-3.231l8.286-13.966
						c0.667-1.121,2.114-1.491,3.234-0.827l16.933,10.046c1.12,0.667,1.49,2.115,0.827,3.236l-8.29,13.967
						C1614.829,3.373,1613.38,3.74,1612.26,3.074z"/>
					<path fill="#0D1639" d="M1637.586,18.104l-16.933-10.049c-1.12-0.664-1.491-2.109-0.825-3.232l8.285-13.966
						c0.668-1.121,2.115-1.491,3.236-0.826l16.932,10.048c1.12,0.665,1.49,2.112,0.825,3.233l-8.288,13.966
						C1640.154,18.401,1638.706,18.77,1637.586,18.104z"/>
					<path fill="#0D1639" d="M1662.911,33.13l-16.933-10.045c-1.12-0.665-1.491-2.111-0.824-3.233l8.287-13.967
						c0.664-1.12,2.112-1.489,3.233-0.825l16.933,10.046c1.12,0.666,1.488,2.114,0.825,3.235l-8.288,13.966
						C1665.48,33.429,1664.032,33.798,1662.911,33.13z"/>
					<path fill="#0D1639" d="M1688.237,48.162l-16.933-10.048c-1.118-0.666-1.491-2.111-0.824-3.233l8.288-13.965
						c0.665-1.122,2.112-1.492,3.232-0.827l16.932,10.048c1.121,0.665,1.491,2.113,0.826,3.234l-8.288,13.966
						C1690.807,48.459,1689.358,48.826,1688.237,48.162z"/>
					<path fill="#0D1639" d="M1713.563,63.188l-16.931-10.047c-1.12-0.665-1.492-2.11-0.825-3.233l8.286-13.965
						c0.666-1.122,2.115-1.492,3.232-0.826l16.933,10.046c1.121,0.667,1.491,2.114,0.826,3.236l-8.288,13.965
						C1716.133,63.487,1714.685,63.854,1713.563,63.188z"/>
					<path fill="#0D1639" d="M1738.889,78.218l-16.93-10.048c-1.12-0.665-1.492-2.11-0.825-3.233l8.286-13.965
						c0.666-1.122,2.114-1.492,3.235-0.827l16.93,10.048c1.12,0.665,1.489,2.113,0.825,3.234l-8.288,13.965
						C1741.459,78.516,1740.01,78.882,1738.889,78.218z"/>
					<path fill="#0D1639" d="M1764.215,93.245l-16.929-10.047c-1.121-0.665-1.492-2.11-0.826-3.234L1754.746,66
						c0.666-1.123,2.114-1.492,3.234-0.827l16.931,10.048c1.121,0.667,1.491,2.114,0.825,3.236l-8.287,13.965
						C1766.784,93.544,1765.338,93.911,1764.215,93.245z"/>
					<path fill="#0D1639" d="M1789.543,108.273l-16.932-10.048c-1.121-0.665-1.492-2.109-0.825-3.231l8.286-13.965
						c0.666-1.122,2.114-1.492,3.234-0.828l16.932,10.049c1.119,0.666,1.491,2.113,0.824,3.235l-8.286,13.963
						C1792.109,108.572,1790.662,108.938,1789.543,108.273z"/>
					<path fill="#0D1639" d="M1814.867,123.302l-16.93-10.048c-1.121-0.665-1.492-2.11-0.826-3.231l8.289-13.967
						c0.664-1.122,2.112-1.491,3.232-0.827l16.93,10.047c1.123,0.665,1.493,2.112,0.826,3.236l-8.286,13.963
						C1817.436,123.6,1815.988,123.967,1814.867,123.302z"/>
					<path fill="#0D1639" d="M1840.195,138.331l-16.934-10.048c-1.119-0.663-1.492-2.11-0.825-3.231l8.288-13.966
						c0.665-1.121,2.113-1.49,3.234-0.825l16.932,10.048c1.121,0.665,1.489,2.113,0.822,3.234l-8.284,13.966
						C1842.761,138.629,1841.314,138.994,1840.195,138.331z"/>
					<path fill="#0D1639" d="M1865.519,153.358l-16.93-10.045c-1.121-0.666-1.491-2.113-0.825-3.234l8.287-13.966
						c0.666-1.121,2.114-1.49,3.234-0.825l16.93,10.045c1.123,0.667,1.491,2.115,0.824,3.236l-8.284,13.966
						C1868.087,153.656,1866.641,154.023,1865.519,153.358z"/>
					<path fill="#0D1639" d="M1890.844,168.388l-16.93-10.047c-1.121-0.665-1.489-2.113-0.825-3.232l8.287-13.968
						c0.666-1.119,2.114-1.489,3.233-0.825l16.93,10.047c1.124,0.667,1.493,2.114,0.826,3.235l-8.285,13.966
						C1893.412,168.685,1891.969,169.054,1890.844,168.388z"/>
					<path fill="#0D1639" d="M1952.19,180.419l-42.253-25.075c-1.121-0.665-2.569-0.295-3.234,0.825l-8.288,13.967
						c-0.664,1.12-0.295,2.568,0.825,3.233l42.258,25.074c1.124,0.667,2.566,0.301,3.232-0.823l8.289-13.966
						C1953.684,182.533,1953.313,181.085,1952.19,180.419z"/>
				</g>
				<g>
					<path fill="#0D1639" d="M1598.313,26.576l-16.933-10.046c-1.121-0.665-1.489-2.113-0.824-3.233l8.287-13.966
						c0.665-1.12,2.114-1.492,3.235-0.827l16.93,10.048c1.123,0.665,1.491,2.116,0.825,3.235l-8.287,13.967
						C1600.881,26.873,1599.433,27.242,1598.313,26.576z"/>
					<path fill="#0D1639" d="M1623.641,41.607l-16.934-10.049c-1.119-0.664-1.489-2.113-0.825-3.233l8.288-13.967
						c0.665-1.119,2.115-1.492,3.235-0.827l16.932,10.048c1.121,0.665,1.489,2.116,0.824,3.236l-8.288,13.966
						C1626.208,41.9,1624.76,42.272,1623.641,41.607z"/>
					<path fill="#0D1639" d="M1648.964,56.633l-16.931-10.045c-1.121-0.665-1.488-2.115-0.825-3.233l8.287-13.967
						c0.666-1.12,2.115-1.492,3.235-0.828l16.93,10.047c1.123,0.665,1.49,2.116,0.826,3.237l-8.287,13.966
						C1651.533,56.931,1650.085,57.3,1648.964,56.633z"/>
					<path fill="#0D1639" d="M1674.291,71.663l-16.932-10.047c-1.119-0.666-1.488-2.114-0.822-3.233l8.287-13.967
						c0.663-1.119,2.112-1.493,3.233-0.828l16.932,10.049c1.12,0.664,1.488,2.115,0.823,3.235l-8.287,13.967
						C1676.859,71.959,1675.411,72.329,1674.291,71.663z"/>
					<path fill="#0D1639" d="M1811.619,128.776l-118.236-70.16c-1.12-0.664-2.568-0.292-3.234,0.827l-8.287,13.967
						c-0.665,1.12-0.295,2.568,0.825,3.233l118.234,70.161c1.123,0.665,2.57,0.295,3.235-0.826l8.287-13.967
						C1813.109,130.892,1812.742,129.443,1811.619,128.776z"/>
					<path fill="#0D1639" d="M1826.248,161.833l-16.932-10.048c-1.12-0.662-1.49-2.113-0.825-3.232l8.287-13.968
						c0.665-1.117,2.113-1.489,3.233-0.825l16.936,10.048c1.12,0.665,1.487,2.116,0.822,3.233l-8.288,13.967
						C1828.817,162.128,1827.369,162.498,1826.248,161.833z"/>
					<path fill="#0D1639" d="M1851.572,176.86l-16.93-10.045c-1.12-0.665-1.49-2.115-0.825-3.233l8.288-13.966
						c0.664-1.121,2.112-1.493,3.232-0.828l16.932,10.045c1.124,0.667,1.491,2.118,0.826,3.238l-8.287,13.966
						C1854.144,177.155,1852.695,177.525,1851.572,176.86z"/>
					<path fill="#0D1639" d="M1876.898,191.889l-16.93-10.046c-1.121-0.664-1.49-2.112-0.825-3.232l8.287-13.966
						c0.665-1.121,2.114-1.493,3.233-0.829l16.931,10.046c1.124,0.666,1.492,2.117,0.827,3.238l-8.288,13.966
						C1879.468,192.184,1878.021,192.556,1876.898,191.889z"/>
					<path fill="#0D1639" d="M1902.225,206.917l-16.93-10.046c-1.121-0.665-1.49-2.112-0.825-3.233l8.288-13.967
						c0.664-1.121,2.113-1.493,3.234-0.828l16.93,10.048c1.123,0.665,1.491,2.115,0.826,3.236l-8.288,13.967
						C1904.797,207.214,1903.348,207.584,1902.225,206.917z"/>
					<path fill="#0D1639" d="M1927.551,221.945l-16.932-10.045c-1.119-0.665-1.489-2.113-0.824-3.233l8.287-13.967
						c0.665-1.121,2.115-1.493,3.235-0.829l16.933,10.048c1.12,0.665,1.488,2.116,0.826,3.236l-8.289,13.967
						C1930.124,222.241,1928.676,222.611,1927.551,221.945z"/>
				</g>
			</g>
		</g>
		<g>
			<path fill="#ECEDF1" d="M1757.922,244.617l-115.158-68.334c-1.974-1.171-2.623-3.714-1.453-5.684l38.368-64.659
				c1.169-1.972,3.716-2.622,5.688-1.452l115.159,68.334c1.972,1.171,2.622,3.717,1.451,5.688l-38.369,64.659
				C1762.438,245.139,1759.895,245.788,1757.922,244.617z"/>
			<path fill="#ECEDF1" d="M1651.828,152.869l-10.518,17.73c-1.17,1.969-0.521,4.513,1.453,5.684l115.158,68.334
				c1.973,1.171,4.517,0.521,5.686-1.448l10.521-17.728L1651.828,152.869z"/>
			
				<rect x="1705.414" y="187.423" transform="matrix(0.8595 0.5111 -0.5111 0.8595 341.8583 -844.1917)" fill="#ECEDF1" width="2.492" height="24.761"/>
		</g>
		<g>
			
				<rect x="1744.347" y="-48.626" transform="matrix(0.86 0.5103 -0.5103 0.86 236.4589 -951.309)" fill="#C2C3C8" width="215.079" height="7.783"/>
			<polygon fill="#B5B6BC" points="1872.598,-46.019 1842.912,-63.633 1763.31,-110.872 1761.391,-102.959 1838.943,-56.94 
				1868.626,-39.326 1946.178,6.693 1952.205,1.218 			"/>
		</g>
	</g>
</g>
<g>
	<path fill="#0F0B0C" d="M1378.2,74.195c4.653,7.493,2.347,17.339-5.144,21.989l-75.291,46.74c-7.495,4.65-17.339,2.346-21.99-5.145
		L1171.771-29.761c-4.652-7.495-2.349-17.339,5.145-21.99l75.291-46.739c7.493-4.65,17.336-2.348,21.987,5.146L1378.2,74.195z"/>
	<path fill="#1E1D1D" d="M1373.832,73.859c4.379,7.053,2.209,16.32-4.844,20.697l-70.877,44c-7.053,4.377-16.318,2.21-20.697-4.842
		L1175.932-29.764c-4.381-7.056-2.213-16.322,4.842-20.702l70.875-43.997c7.052-4.377,16.32-2.21,20.7,4.846L1373.832,73.859z"/>
	<g>
		<g>
			<path fill="#212021" d="M1334.876,96.86c3.196,5.152,1.614,11.916-3.537,15.113c-5.147,3.196-11.912,1.613-15.109-3.538
				c-3.195-5.148-1.614-11.913,3.533-15.107C1324.914,90.128,1331.68,91.712,1334.876,96.86z"/>
			<path fill="#3E3D40" d="M1331.431,112.123c-5.222,3.242-12.106,1.63-15.349-3.595c-3.242-5.219-1.631-12.107,3.589-15.347
				c5.225-3.244,12.111-1.63,15.353,3.589C1338.267,101.993,1336.655,108.881,1331.431,112.123z M1319.854,93.475
				c-5.056,3.139-6.617,9.812-3.477,14.87c3.141,5.062,9.814,6.624,14.872,3.482c5.058-3.142,6.62-9.812,3.479-14.874
				C1331.586,91.894,1324.916,90.333,1319.854,93.475z"/>
		</g>
	</g>
	<path fill="#C6C7C8" d="M1325.779,96.74l-5.477,3.399c-0.747,0.463-0.975,1.446-0.513,2.195l3.399,5.472
		c0.461,0.749,1.445,0.977,2.193,0.513l5.476-3.399c0.745-0.463,0.976-1.447,0.515-2.192l-3.398-5.476
		C1327.51,96.507,1326.527,96.276,1325.779,96.74z M1330.283,103.993l-5.479,3.399c-0.232,0.145-0.543,0.07-0.686-0.161
		l-3.398-5.476c-0.146-0.234-0.075-0.542,0.159-0.688l5.476-3.399c0.232-0.142,0.542-0.071,0.688,0.163l3.399,5.472
		C1330.585,103.536,1330.514,103.849,1330.283,103.993z"/>
	
		<rect x="1222.692" y="-55.625" transform="matrix(0.8496 -0.5274 0.5274 0.8496 180.0345 675.7944)" fill="#3E3D40" width="104.586" height="155.684"/>
	<path opacity="0.1" fill="#FFFFFF" d="M1334.876,96.86c3.196,5.152,1.614,11.916-3.537,15.113
		c-5.147,3.196-11.912,1.613-15.109-3.538C1327.695,112.031,1334.66,103.351,1334.876,96.86z"/>
	<path fill="#3E3D40" d="M1241.521-65.366c1.032,1.661,0.523,3.846-1.14,4.876L1214.945-44.7c-1.66,1.033-3.848,0.518-4.878-1.143
		l0,0c-1.034-1.662-0.522-3.847,1.141-4.877l25.437-15.791C1238.305-67.542,1240.488-67.03,1241.521-65.366L1241.521-65.366z"/>
	<path fill="#58585A" d="M1240.291-64.602c0.632,1.019,0.321,2.363-0.703,2.998l-25.117,15.594
		c-1.027,0.637-2.368,0.319-3.001-0.701l0,0c-0.637-1.022-0.321-2.363,0.701-3l25.122-15.593
		C1238.313-65.942,1239.656-65.626,1240.291-64.602L1240.291-64.602z"/>
</g>
<g>
	<g>
		
			<rect x="545.294" y="-66.997" transform="matrix(-0.3115 0.9502 -0.9502 -0.3115 1023.7144 -468.2874)" fill="#F6F6F6" width="272.405" height="407.4"/>
		<g>
			
				<line fill="none" stroke="#D3D3D3" stroke-width="0.75" stroke-miterlimit="10" x1="824.131" y1="58.528" x2="750.155" y2="284.153"/>
			
				<line fill="none" stroke="#D3D3D3" stroke-width="0.75" stroke-miterlimit="10" x1="868.339" y1="73.021" x2="845.599" y2="142.373"/>
			
				<line fill="none" stroke="#D3D3D3" stroke-width="0.75" stroke-miterlimit="10" x1="802.841" y1="51.546" x2="728.863" y2="277.175"/>
			
				<line fill="none" stroke="#D3D3D3" stroke-width="0.75" stroke-miterlimit="10" x1="781.547" y1="44.566" x2="707.574" y2="270.194"/>
			
				<line fill="none" stroke="#D3D3D3" stroke-width="0.75" stroke-miterlimit="10" x1="760.257" y1="37.586" x2="686.279" y2="263.212"/>
			
				<line fill="none" stroke="#D3D3D3" stroke-width="0.75" stroke-miterlimit="10" x1="738.963" y1="30.603" x2="664.987" y2="256.23"/>
			
				<line fill="none" stroke="#D3D3D3" stroke-width="0.75" stroke-miterlimit="10" x1="717.674" y1="23.623" x2="643.696" y2="249.25"/>
			
				<line fill="none" stroke="#D3D3D3" stroke-width="0.75" stroke-miterlimit="10" x1="696.381" y1="16.641" x2="622.406" y2="242.27"/>
			
				<line fill="none" stroke="#D3D3D3" stroke-width="0.75" stroke-miterlimit="10" x1="675.09" y1="9.66" x2="601.115" y2="235.291"/>
			
				<line fill="none" stroke="#D3D3D3" stroke-width="0.75" stroke-miterlimit="10" x1="653.799" y1="2.681" x2="579.821" y2="228.308"/>
			
				<line fill="none" stroke="#D3D3D3" stroke-width="0.75" stroke-miterlimit="10" x1="632.505" y1="-4.301" x2="558.529" y2="221.328"/>
			
				<line fill="none" stroke="#D3D3D3" stroke-width="0.75" stroke-miterlimit="10" x1="611.211" y1="-11.282" x2="537.237" y2="214.345"/>
			
				<line fill="none" stroke="#D3D3D3" stroke-width="0.75" stroke-miterlimit="10" x1="589.922" y1="-18.263" x2="515.947" y2="207.365"/>
			
				<line fill="none" stroke="#D3D3D3" stroke-width="0.75" stroke-miterlimit="10" x1="568.632" y1="-25.242" x2="494.654" y2="200.384"/>
		</g>
	</g>
	<g>
		<g opacity="0.2">
			<polygon fill="#8C8C8C" points="416.021,162.328 468.441,-104.985 868.195,-26.61 815.78,240.705 			"/>
			
				<line fill="none" stroke="#8C8C8C" stroke-width="0.75" stroke-miterlimit="10" x1="774.043" y1="-27.257" x2="728.356" y2="205.751"/>
			
				<line fill="none" stroke="#8C8C8C" stroke-width="0.75" stroke-miterlimit="10" x1="819.697" y1="-18.305" x2="805.652" y2="53.314"/>
			
				<line fill="none" stroke="#8C8C8C" stroke-width="0.75" stroke-miterlimit="10" x1="752.054" y1="-31.568" x2="706.368" y2="201.44"/>
			
				<line fill="none" stroke="#8C8C8C" stroke-width="0.75" stroke-miterlimit="10" x1="730.066" y1="-35.879" x2="684.379" y2="197.129"/>
			
				<line fill="none" stroke="#8C8C8C" stroke-width="0.75" stroke-miterlimit="10" x1="708.077" y1="-40.192" x2="662.392" y2="192.818"/>
			
				<line fill="none" stroke="#8C8C8C" stroke-width="0.75" stroke-miterlimit="10" x1="686.089" y1="-44.503" x2="640.402" y2="188.506"/>
			
				<line fill="none" stroke="#8C8C8C" stroke-width="0.75" stroke-miterlimit="10" x1="664.101" y1="-48.814" x2="618.414" y2="184.194"/>
			
				<line fill="none" stroke="#8C8C8C" stroke-width="0.75" stroke-miterlimit="10" x1="642.11" y1="-53.127" x2="596.426" y2="179.883"/>
			
				<line fill="none" stroke="#8C8C8C" stroke-width="0.75" stroke-miterlimit="10" x1="620.123" y1="-57.438" x2="574.438" y2="175.571"/>
			
				<line fill="none" stroke="#8C8C8C" stroke-width="0.75" stroke-miterlimit="10" x1="598.134" y1="-61.748" x2="552.45" y2="171.26"/>
			
				<line fill="none" stroke="#8C8C8C" stroke-width="0.75" stroke-miterlimit="10" x1="576.174" y1="-66.048" x2="530.462" y2="166.949"/>
			
				<line fill="none" stroke="#8C8C8C" stroke-width="0.75" stroke-miterlimit="10" x1="554.187" y1="-70.359" x2="508.475" y2="162.638"/>
			
				<line fill="none" stroke="#8C8C8C" stroke-width="0.75" stroke-miterlimit="10" x1="532.199" y1="-74.67" x2="486.516" y2="158.339"/>
			
				<line fill="none" stroke="#8C8C8C" stroke-width="0.75" stroke-miterlimit="10" x1="510.208" y1="-78.984" x2="464.523" y2="154.027"/>
		</g>
		<g>
			<g>
				<polygon fill="#F6F6F6" points="415.021,163.328 467.441,-103.985 867.195,-25.61 814.78,241.705 				"/>
				<g>
					
						<line fill="none" stroke="#D3D3D3" stroke-width="0.75" stroke-miterlimit="10" x1="773.043" y1="-26.257" x2="727.356" y2="206.751"/>
					
						<line fill="none" stroke="#D3D3D3" stroke-width="0.75" stroke-miterlimit="10" x1="818.697" y1="-17.305" x2="804.652" y2="54.314"/>
					
						<line fill="none" stroke="#D3D3D3" stroke-width="0.75" stroke-miterlimit="10" x1="751.054" y1="-30.568" x2="705.368" y2="202.44"/>
					
						<line fill="none" stroke="#D3D3D3" stroke-width="0.75" stroke-miterlimit="10" x1="729.066" y1="-34.879" x2="683.379" y2="198.129"/>
					
						<line fill="none" stroke="#D3D3D3" stroke-width="0.75" stroke-miterlimit="10" x1="707.077" y1="-39.192" x2="661.392" y2="193.818"/>
					
						<line fill="none" stroke="#D3D3D3" stroke-width="0.75" stroke-miterlimit="10" x1="685.089" y1="-43.503" x2="639.402" y2="189.506"/>
					
						<line fill="none" stroke="#D3D3D3" stroke-width="0.75" stroke-miterlimit="10" x1="663.101" y1="-47.814" x2="617.414" y2="185.194"/>
					
						<line fill="none" stroke="#D3D3D3" stroke-width="0.75" stroke-miterlimit="10" x1="641.11" y1="-52.127" x2="595.426" y2="180.883"/>
					
						<line fill="none" stroke="#D3D3D3" stroke-width="0.75" stroke-miterlimit="10" x1="619.123" y1="-56.438" x2="573.438" y2="176.571"/>
					
						<line fill="none" stroke="#D3D3D3" stroke-width="0.75" stroke-miterlimit="10" x1="597.134" y1="-60.748" x2="551.45" y2="172.26"/>
					
						<line fill="none" stroke="#D3D3D3" stroke-width="0.75" stroke-miterlimit="10" x1="575.174" y1="-65.048" x2="529.462" y2="167.949"/>
					
						<line fill="none" stroke="#D3D3D3" stroke-width="0.75" stroke-miterlimit="10" x1="553.187" y1="-69.359" x2="507.475" y2="163.638"/>
					
						<line fill="none" stroke="#D3D3D3" stroke-width="0.75" stroke-miterlimit="10" x1="531.199" y1="-73.67" x2="485.516" y2="159.339"/>
					
						<line fill="none" stroke="#D3D3D3" stroke-width="0.75" stroke-miterlimit="10" x1="509.208" y1="-77.984" x2="463.523" y2="155.027"/>
				</g>
			</g>
		</g>
	</g>
</g>
</svg>
